<?xml version="1.0" encoding="utf-8"?>
<!-- Generator: Adobe Illustrator 19.2.1, SVG Export Plug-In . SVG Version: 6.00 Build 0)  -->
<svg version="1.1" id="layer" xmlns="http://www.w3.org/2000/svg" xmlns:xlink="http://www.w3.org/1999/xlink" x="0px" y="0px"
	 viewBox="0 0 652 652" style="enable-background:new 0 0 652 652;" xml:space="preserve">
<style type="text/css">
	.st0{fill:#25282A;}
</style>
<path class="st0" d="M325.6,184.1v5.9h-8.1v-5.9h-11.2v5.9h-7.7v-5.8l-10.8,0.1l2.6,29.7l8,5.1l3.2,38.3l19.9,8l20-8l3.1-38.3
	l8.2-5.1l2.4-29.6l-10.7-0.2v5.8h-7.7v-5.7L325.6,184.1z M406.2,227.3h-6.4v-5.1h-8.9v5.1h-6.5v-5.1h-8.8v5.1h-6.4v-5.1l-9.7,0.1
	l2.3,25.2l8.5,5.5l-1.6,19l-8.2,2.3l-0.3-5.8l-8.4,2.2v5.4l-7.7,2l-0.3-5.3l-9.5,1.5v5.6l-7.6,0.7V275h-10v5.6h-0.3l-7.7-0.7v-5.6
	l-9.5-1.6l-0.3,5.4l-7.6-2v-5.4l-8.5-2.1l-0.2,5.7l-8.2-2.3l-1.4-19.2l8.3-5.4l2.1-25.2l-9.6-0.1v5.1h-6.4v-5.1h-8.7v5.1h-6.6v-5.1
	h-8.9v5.1h-6.3v-5.1l-9.7,0.1l2.2,25.2l6.1,3.9l19.7,85.8l66.2,20h0l66.3-20l19.7-86l6.1-3.7l2.3-25.2l-9.7-0.1V227.3z"/>
<path id="Shape" class="st0" d="M626.9,455.3h-10.8v10.5h10.8V455.3z M580.2,466.9c11.9,0,18.4-5.9,18.4-14.4
	c0-7.6-4.2-11.6-12.5-13.3l-6.5-1.4c-4.8-1.1-6.5-2.5-6.5-5.4c0-2.8,2.8-4.5,7.1-4.5c5.1,0,9.3,2.5,11.6,7.1l7.1-5.9
	c-3.1-5.9-9.9-9.1-17.8-9.1c-10.8,0-17.6,5.1-17.6,13.3c0,7.6,4.5,11.9,12.5,13.6l5.9,1.4c4.5,0.8,6.5,2.3,6.5,5.7
	c0,3.7-3.4,5.1-7.7,5.1c-5.9,0-9.9-3.1-12.2-7.6l-7.9,5.7C563.5,462.7,570.6,466.9,580.2,466.9 M524.1,458.4
	c-7.1,0-11.3-5.7-11.3-15.3c0-9.6,4.2-15.3,11.3-15.3c7.1,0,11.3,5.7,11.3,15.3C535.4,452.8,531.2,458.4,524.1,458.4 M524.1,466.9
	c13.6,0,22.4-9.1,22.4-23.8c0-14.7-8.8-23.8-22.4-23.8c-13.6,0-22.4,9.1-22.4,23.8C501.7,457.6,510.5,466.9,524.1,466.9
	 M459.5,428.1h7.1c5.4,0,7.7,2.3,7.7,6.2s-2.3,6.5-7.7,6.5h-7.1V428.1z M474.8,465.8h11.6l-9.9-19c5.9-2,8.8-6.8,8.8-12.5
	c0-8.2-5.1-13.9-16.4-13.9H449v45.3h10.8v-17.3h6.5L474.8,465.8z M410.8,458.2h-7.4v-11.9h7.6c4.5,0,6.8,2.3,6.8,5.9
	C418.2,455.6,415.9,458.2,410.8,458.2 M410.2,428.1c4.5,0,6.8,2.3,6.8,5.4c0,3.1-2,5.7-6.8,5.7h-6.8v-11H410.2z M419.9,442
	c5.4-1.4,8.2-5.4,8.2-9.9c0-6.5-4.8-11.6-15-11.6h-20.4v45.3h21.2c10.2,0,15.3-5.7,15.3-12.7C429.2,447.1,425.8,443.1,419.9,442
	 M302.9,465.8h9.9v-25.5c0-2.3,0-4.2,0-5.9l0,0c0.6,1.7,1.4,3.4,2.5,5.7l15,26.1h11.3v-45.3h-9.9v25.8c0,2.3,0,4,0,5.7l0,0
	c-0.6-1.7-1.7-4-2.8-5.9l-14.4-25.8h-11.9v45.3H302.9z M280.8,420.5H270v45.3h10.8V420.5z M223.8,428.1h7.1c5.4,0,7.6,2.3,7.6,6.2
	s-2.3,6.5-7.6,6.5h-7.1V428.1z M238.8,465.8h11.6l-9.9-19c5.9-2,8.8-6.8,8.8-12.5c0-8.2-5.1-13.9-16.4-13.9h-19.8v45.3h10.8v-17.3
	h6.5L238.8,465.8z M171.4,458.4c-7.1,0-11.3-5.7-11.3-15.3c0-9.6,4.2-15.3,11.3-15.3c7.1,0,11.3,5.7,11.3,15.3
	C182.5,452.8,178.5,458.4,171.4,458.4 M171.4,466.9c13.6,0,22.4-9.1,22.4-23.8c0-14.7-8.8-23.8-22.4-23.8s-22.4,9.1-22.4,23.8
	C149,457.6,157.8,466.9,171.4,466.9 M109.4,458.4c-7.1,0-11.3-5.7-11.3-15.3c0-9.6,4.2-15.3,11.3-15.3c7.1,0,11.3,5.7,11.3,15.3
	C120.7,452.8,116.5,458.4,109.4,458.4 M109.4,466.9c13.6,0,22.4-9.1,22.4-23.8c0-14.7-8.8-23.8-22.4-23.8
	c-13.6,0-22.4,9.1-22.4,23.8C87.3,457.6,95.8,466.9,109.4,466.9 M47,466.9c6.8,0,11.9-2.8,14.2-7.6l0.6,6.5h7.4v-25.2h-21v7.6h11
	v0.8c0,4-3.1,9.3-9.9,9.3c-7.6,0-11.3-5.9-11.3-15.6c0-9.6,4.2-15.6,11.3-15.6c5.7,0,8.2,3.4,9.1,7.6l10.8-2
	c-1.4-7.6-7.9-13.9-19.8-13.9c-13.9,0-22.4,9.6-22.4,23.8C26.9,457.6,34.6,466.9,47,466.9"/>
</svg>
