<?xml version="1.0" encoding="UTF-8" standalone="no"?>
<!-- Created with Inkscape (http://www.inkscape.org/) -->

<svg
   xmlns:dc="http://purl.org/dc/elements/1.1/"
   xmlns:cc="http://creativecommons.org/ns#"
   xmlns:rdf="http://www.w3.org/1999/02/22-rdf-syntax-ns#"
   xmlns:svg="http://www.w3.org/2000/svg"
   xmlns="http://www.w3.org/2000/svg"
   xmlns:sodipodi="http://sodipodi.sourceforge.net/DTD/sodipodi-0.dtd"
   xmlns:inkscape="http://www.inkscape.org/namespaces/inkscape"
   version="1.1"
   id="svg2"
   xml:space="preserve"
   width="700"
   height="700"
   viewBox="0 0 699.99999 700"
   sodipodi:docname="new-era-logo.svg"
   inkscape:export-filename="G:\Users\suitedoalex\sites\new-era-logo-0.png"
   inkscape:export-xdpi="561.73712"
   inkscape:export-ydpi="561.73712"
   inkscape:version="0.92.4 (5da689c313, 2019-01-14)"><metadata
     id="metadata8"><rdf:RDF><cc:Work
         rdf:about=""><dc:format>image/svg+xml</dc:format><dc:type
           rdf:resource="http://purl.org/dc/dcmitype/StillImage" /><dc:title></dc:title></cc:Work></rdf:RDF></metadata><defs
     id="defs6"><clipPath
       clipPathUnits="userSpaceOnUse"
       id="clipPath56"><path
         d="M 0,595.275 H 841.89 V 0 H 0 Z"
         id="path54"
         inkscape:connector-curvature="0" /></clipPath><clipPath
       clipPathUnits="userSpaceOnUse"
       id="clipPath88"><path
         d="m 56.519,343.536 h 128.993 v 99.498 H 56.519 Z"
         id="path86"
         inkscape:connector-curvature="0" /></clipPath><clipPath
       clipPathUnits="userSpaceOnUse"
       id="clipPath116"><path
         d="M 0,595.275 H 841.89 V 0 H 0 Z"
         id="path114"
         inkscape:connector-curvature="0" /></clipPath><clipPath
       clipPathUnits="userSpaceOnUse"
       id="clipPath132"><path
         d="m 470.191,71.769 h 90.37 v 45.635 h -90.37 z"
         id="path130"
         inkscape:connector-curvature="0" /></clipPath><clipPath
       clipPathUnits="userSpaceOnUse"
       id="clipPath142"><path
         d="M 0,595.275 H 841.89 V 0 H 0 Z"
         id="path140"
         inkscape:connector-curvature="0" /></clipPath></defs><sodipodi:namedview
     pagecolor="#ffffff"
     bordercolor="#666666"
     borderopacity="1"
     objecttolerance="10"
     gridtolerance="10"
     guidetolerance="10"
     inkscape:pageopacity="0"
     inkscape:pageshadow="2"
     inkscape:window-width="1600"
     inkscape:window-height="837"
     id="namedview4"
     showgrid="false"
     inkscape:zoom="0.59468312"
     inkscape:cx="475.2035"
     inkscape:cy="258.73153"
     inkscape:window-x="-8"
     inkscape:window-y="-8"
     inkscape:window-maximized="1"
     inkscape:current-layer="g10" /><g
     id="g10"
     inkscape:groupmode="layer"
     inkscape:label="SPFC_licenciamento_APRES2013_2_OKbx (1)"
     transform="matrix(1.3333333,0,0,-1.3333333,0,699.99999)"><g
       id="g126"
       transform="matrix(4.2114194,0,0,4.2114194,-1907.9645,-135.84132)"
       inkscape:export-filename="G:\Users\suitedoalex\sites\new-era-logo-4.png"
       inkscape:export-xdpi="75.677284"
       inkscape:export-ydpi="75.677284"><g
         id="g128"
         clip-path="url(#clipPath132)"><path
           d="m 560.111,72.218 h -89.47 v 44.735 h 89.47 z"
           style="fill:none;stroke:#ffffff;stroke-width:0.89999998;stroke-linecap:butt;stroke-linejoin:miter;stroke-miterlimit:4;stroke-dasharray:none;stroke-opacity:1"
           id="path134"
           inkscape:connector-curvature="0" /></g></g><g
       id="g136"
       transform="matrix(4.2114194,0,0,4.2114194,-1907.9645,-135.84132)"
       inkscape:export-filename="G:\Users\suitedoalex\sites\new-era-logo-4.png"
       inkscape:export-xdpi="75.677284"
       inkscape:export-ydpi="75.677284"><g
         id="g138"
         clip-path="url(#clipPath142)"><path
           d="m 560.111,72.218 h -89.47 v 44.735 h 89.47 z"
           style="fill:#231f20;fill-opacity:1;fill-rule:nonzero;stroke:none"
           id="path144"
           inkscape:connector-curvature="0" /><g
           id="g146"
           transform="translate(478.2097,83.4776)"><path
             d="m 0,0 c 0,0 0,-3.053 3.248,-1.732 l 13.271,5.088 c 0,0 1.169,0.195 1.559,-0.498 0,0 0.281,-1.472 2.013,-1.386 0,0 1.126,-0.195 3.399,1.429 l 8.963,5.153 c 0,0 0.065,0.129 -0.151,0.389 l -4.179,6.452 c 0,0 -0.671,1.255 -2.424,1.428 l -9.829,1.646 c 0,0 -0.78,2.1 -3.789,2.922 L -1.32,24.203 c 0,0 -1.797,0.022 -1.667,-1.775 z"
             style="fill:#ffffff;fill-opacity:1;fill-rule:nonzero;stroke:none"
             id="path148"
             inkscape:connector-curvature="0" /></g><g
           id="g150"
           transform="translate(559.0406,115.9195)"><path
             d="M 0,0 V -42.63 H -42.511 V 0.045"
             style="fill:#ffffff;fill-opacity:1;fill-rule:nonzero;stroke:none"
             id="path152"
             inkscape:connector-curvature="0" /></g><g
           id="g154"
           transform="translate(482.1717,89.8855)"><path
             d="m 0,0 0.823,-3.897 12.145,3.594 c 0,0 1.321,0.281 2.187,0.281 0,0 0.347,0.087 0.801,-0.606 0,0 0.519,-1.147 2.143,-0.974 0,0 3.94,1.082 8.508,3.615 0,0 0.347,0.087 0.13,0.477 L 26.088,3.485 15.783,0.476 c 0,0 -0.433,-0.26 -0.606,0.476 0,0 -0.217,1.97 -5.196,0.866 z"
             style="fill:#231f20;fill-opacity:1;fill-rule:nonzero;stroke:none"
             id="path156"
             inkscape:connector-curvature="0" /></g><g
           id="g158"
           transform="translate(481.7826,91.9853)"><path
             d="M 0,0 5.369,0.758 2.836,9.374 6.625,8.855 c 0,0 1.125,-0.108 1.796,-1.927 l 2.014,-5.477 c 0,0 3.702,0.346 4.178,-0.347 L 10.976,9.18 c 0,0 -0.779,1.298 -2.858,1.688 l -4.287,0.888 c 0,0 -1.06,0.152 -1.212,-1.018 0,0 -0.173,-0.195 -0.238,0.065 l -0.217,1.234 -4.806,1.083 z"
             style="fill:#231f20;fill-opacity:1;fill-rule:nonzero;stroke:none"
             id="path160"
             inkscape:connector-curvature="0" /></g><g
           id="g162"
           transform="translate(497.7809,97.4843)"><path
             d="M 0,0 -0.953,1.927 6.82,1.082 c 0,0 0.368,0.108 1.213,-1.234 z"
             style="fill:#231f20;fill-opacity:1;fill-rule:nonzero;stroke:none"
             id="path164"
             inkscape:connector-curvature="0" /></g><g
           id="g166"
           transform="translate(498.8418,95.2981)"><path
             d="M 0,0 7.881,0.455 8.617,-0.672 1.018,-2.165 Z"
             style="fill:#231f20;fill-opacity:1;fill-rule:nonzero;stroke:none"
             id="path168"
             inkscape:connector-curvature="0" /></g><g
           id="g170"
           transform="translate(522.5345,95.2762)"><path
             d="M 0,0 H 2.223 V 6.811 L 6.599,0.26 c 0,0 0.118,-0.426 1.3,-0.284 0,0 0.804,0.142 0.804,0.97 V 11.352 H 6.551 V 4.423 L 2.01,11.234 c 0,0 -1.537,0.662 -1.987,-0.449 z"
             style="fill:#231f20;fill-opacity:1;fill-rule:nonzero;stroke:none"
             id="path172"
             inkscape:connector-curvature="0" /></g><g
           id="g174"
           transform="translate(534.6432,101.9934)"><path
             d="M 0,0 H 5.794 V -1.963 H 0.047 V -4.73 h 6.267 v -1.963 h -6.503 c 0,0 -1.963,0.118 -1.963,2.081 v 7.474 c 0,0 0.26,1.726 2.081,1.821 H 6.314 V 2.72 h -6.22 -0.118 z"
             style="fill:#231f20;fill-opacity:1;fill-rule:nonzero;stroke:none"
             id="path176"
             inkscape:connector-curvature="0" /></g><g
           id="g178"
           transform="translate(524.7068,89.1315)"><path
             d="M 0,0 H 5.794 V -1.963 H 0.047 V -4.73 h 6.267 v -1.963 h -6.503 c 0,0 -1.963,0.119 -1.963,2.081 v 7.474 c 0,0 0.26,1.726 2.081,1.821 H 6.314 V 2.72 h -6.22 -0.118 z"
             style="fill:#231f20;fill-opacity:1;fill-rule:nonzero;stroke:none"
             id="path180"
             inkscape:connector-curvature="0" /></g><g
           id="g182"
           transform="translate(542.1405,106.6997)"><path
             d="m 0,0 h 2.27 v -9.531 h 2.152 v 9.436 H 6.598 V -9.483 H 8.703 V 0 h 2.271 v -9.294 c 0,0 0.118,-1.939 -2.058,-2.105 H 2.129 c 0,0 -1.928,-0.248 -2.117,2.093 z"
             style="fill:#231f20;fill-opacity:1;fill-rule:nonzero;stroke:none"
             id="path184"
             inkscape:connector-curvature="0" /></g><g
           id="g186"
           transform="translate(532.4304,82.4415)"><path
             d="M 0,0 H 2.265 V 9.323 L 2.447,9.586 H 7.24 L 7.523,9.344 V 6.896 L 7.24,6.674 H 3.418 L 2.589,4.854 h 2.75 L 7.745,0 h 2.549 L 7.725,4.834 c 0,0 1.76,0.283 1.922,1.88 v 3.074 c 0,0 -0.425,1.416 -1.8,1.598 H 1.86 c 0,0 -1.698,-0.243 -1.799,-1.982 z"
             style="fill:#231f20;fill-opacity:1;fill-rule:nonzero;stroke:none"
             id="path188"
             inkscape:connector-curvature="0" /></g><g
           id="g190"
           transform="translate(543.534,82.4417)"><path
             d="M 0,0 H 2.305 V 9.283 L 2.406,9.546 H 7.078 L 7.28,9.384 V 6.755 H 3.579 L 2.629,4.914 H 7.28 V 0.02 h 2.367 v 9.445 c 0,0 -0.263,1.901 -2.65,1.961 H 1.881 c 0,0 -1.719,-0.222 -1.881,-2.143 z"
             style="fill:#231f20;fill-opacity:1;fill-rule:nonzero;stroke:none"
             id="path192"
             inkscape:connector-curvature="0" /></g><g
           id="g194"
           transform="translate(550.1791,79.7278)"><path
             d="M 0,0 V 1.273 H -0.523 V 1.532 H 0.878 V 1.273 H 0.355 V 0 Z"
             style="fill:#231f20;fill-opacity:1;fill-rule:nonzero;stroke:none"
             id="path196"
             inkscape:connector-curvature="0" /></g><g
           id="g198"
           transform="translate(551.2806,79.7278)"><path
             d="M 0,0 V 1.532 H 0.533 L 0.852,0.487 1.168,1.532 H 1.702 V 0 H 1.371 V 1.206 L 1.02,0 H 0.679 L 0.331,1.206 0.33,0 Z"
             style="fill:#231f20;fill-opacity:1;fill-rule:nonzero;stroke:none"
             id="path200"
             inkscape:connector-curvature="0" /></g></g></g></g></svg>