<?xml version="1.0" encoding="UTF-8" standalone="no"?>
<svg
   xmlns:dc="http://purl.org/dc/elements/1.1/"
   xmlns:cc="http://creativecommons.org/ns#"
   xmlns:rdf="http://www.w3.org/1999/02/22-rdf-syntax-ns#"
   xmlns:svg="http://www.w3.org/2000/svg"
   xmlns="http://www.w3.org/2000/svg"
   xmlns:sodipodi="http://sodipodi.sourceforge.net/DTD/sodipodi-0.dtd"
   xmlns:inkscape="http://www.inkscape.org/namespaces/inkscape"
   width="700"
   height="700"
   viewBox="0 0 404.12371 404.44444"
   version="1.1"
   id="svg23"
   sodipodi:docname="the-north-face-logo.svg"
   inkscape:version="0.92.4 (5da689c313, 2019-01-14)"
   inkscape:export-filename="C:\Users\suitedoalex\sites\the-north-face-logo-0.png"
   inkscape:export-xdpi="561.73712"
   inkscape:export-ydpi="561.73712">
  <metadata
     id="metadata29">
    <rdf:RDF>
      <cc:Work
         rdf:about="">
        <dc:format>image/svg+xml</dc:format>
        <dc:type
           rdf:resource="http://purl.org/dc/dcmitype/StillImage" />
        <dc:title>B521D017-B301-467C-A7CB-027D35F90850@1x</dc:title>
      </cc:Work>
    </rdf:RDF>
  </metadata>
  <defs
     id="defs27" />
  <sodipodi:namedview
     pagecolor="#ffffff"
     bordercolor="#666666"
     borderopacity="1"
     objecttolerance="10"
     gridtolerance="10"
     guidetolerance="10"
     inkscape:pageopacity="0"
     inkscape:pageshadow="2"
     inkscape:window-width="1600"
     inkscape:window-height="837"
     id="namedview25"
     showgrid="false"
     inkscape:zoom="0.81701031"
     inkscape:cx="220.17755"
     inkscape:cy="341.88822"
     inkscape:window-x="-8"
     inkscape:window-y="-8"
     inkscape:window-maximized="1"
     inkscape:current-layer="svg23" />
  <title
     id="title2">B521D017-B301-467C-A7CB-027D35F90850@1x</title>
  <g
     id="Symbols"
     style="fill:none;fill-rule:evenodd;stroke:none;stroke-width:1"
     transform="matrix(5.5461919,0,0,5.5461919,46.768482,130.12173)"
     inkscape:export-filename="C:\Users\suitedoalex\sites\the-north-face-logo-4.png"
     inkscape:export-xdpi="71.434692"
     inkscape:export-ydpi="71.434692">
    <g
       id="TNF-Logo-No-R_Regular-2018_BLACK"
       style="fill:#1a1919">
      <g
         id="Group-5"
         transform="translate(16.095929)">
        <polyline
           id="Fill-1"
           points="4.06065266 8.03726676 2.40342193 8.03726676 2.40342193 1.42210358 -2.39044511e-15 1.42210358 -2.39044511e-15 0 6.46138319 0 6.46138319 1.42210358 4.06065266 1.42210358 4.06065266 8.03726676" />
        <polyline
           id="Fill-3"
           points="8.7113952 4.43233624 8.7113952 8.03726676 7.05147306 8.03726676 7.05147306 0 8.7113952 0 8.7113952 3.046976 11.8091988 3.046976 11.8091988 0 13.4704667 0 13.4704667 8.03726676 11.8091988 8.03726676 11.8091988 4.43233624 8.7113952 4.43233624" />
        <polyline
           id="Fill-4"
           points="19.8982073 1.42210358 15.7245158 1.42210358 15.7245158 3.11161707 19.4029894 3.11161707 19.4029894 4.53372066 15.7245158 4.53372066 15.7245158 6.6178849 19.8968616 6.6178849 19.8968616 8.03794719 14.1776325 8.03794719 14.1776325 0 19.8982073 0 19.8982073 1.42210358" />
      </g>
      <polyline
         id="Fill-6"
         points="4.92526554 8.86195075 6.4761859 8.86195075 6.4761859 16.8992175 4.81559091 16.8992175 1.57379728 11.1686164 1.55024751 11.1686164 1.55024751 16.8992175 0 16.8992175 0 8.86195075 1.74806555 8.86195075 4.89902437 14.4578263 4.92526554 14.4578263 4.92526554 8.86195075" />
      <path
         d="m 11.047532,15.690089 c 0.897583,0 2.157159,-0.559996 2.157159,-2.809505 0,-2.248829 -1.259576,-2.808825 -2.157159,-2.808825 -0.894218,0 -2.1578314,0.559996 -2.1578314,2.808825 0,2.249509 1.2636134,2.809505 2.1578314,2.809505 m 0,-7.0411136 c 1.053011,0 3.819099,0.4599723 3.819099,4.2316086 0,3.768915 -2.766088,4.228887 -3.819099,4.228887 -1.0503195,0 -3.8197721,-0.459972 -3.8197721,-4.228887 0,-3.7716363 2.7694526,-4.2316086 3.8197721,-4.2316086"
         id="Fill-7"
         inkscape:connector-curvature="0" />
      <polyline
         id="Fill-8"
         points="26.5775941 16.8992175 24.9190176 16.8992175 24.9190176 10.282013 22.51425 10.282013 22.51425 8.86195075 28.9749603 8.86195075 28.9749603 10.282013 26.5775941 10.282013 26.5775941 16.8992175" />
      <polyline
         id="Fill-9"
         points="31.2330466 13.2956479 31.2330466 16.8978566 29.5744701 16.8978566 29.5744701 8.86127031 31.2330466 8.86127031 31.2330466 11.9048442 34.3301773 11.9048442 34.3301773 8.86127031 35.9927909 8.86127031 35.9927909 16.8978566 34.3301773 16.8978566 34.3301773 13.2956479 31.2330466 13.2956479" />
      <path
         d="m 19.133849,12.400879 c 0.86394,0 1.284472,-0.303472 1.284472,-1.098218 0,-0.423909 -0.19109,-1.050587 -1.162013,-1.050587 h -2.071034 v 2.148805 z M 15.556976,8.8619508 h 4.020282 c 2.11275,0 2.499639,1.5786032 2.499639,2.2746852 0,0.883882 -0.4461,1.645285 -1.230643,1.914737 0.654683,0.289183 1.00793,0.534819 1.00793,2.035173 0,1.174426 0,1.467012 0.353919,1.601057 v 0.211614 h -1.8389 c -0.109002,-0.377639 -0.174269,-0.794745 -0.174269,-1.62147 0,-1.097537 -0.06459,-1.521446 -1.297255,-1.521446 h -1.712405 v 3.142916 h -1.628298 z"
         id="Fill-10"
         inkscape:connector-curvature="0" />
      <polyline
         id="Fill-11"
         points="12.3097996 25.759127 10.651896 25.759127 10.651896 17.7232211 16.3045129 17.7232211 16.3045129 19.1453246 12.3097996 19.1453246 12.3097996 20.9579964 15.8052578 20.9579964 15.8052578 22.3828217 12.3097996 22.3828217 12.3097996 25.759127" />
      <path
         d="m 18.048541,22.716234 h 2.023935 L 19.08675,19.538615 h -0.01817 z m -0.997164,3.042893 h -1.749411 l 2.833373,-8.035906 h 1.914932 l 2.799059,8.035906 H 21.044745 L 20.53607,24.102274 h -2.93161 z"
         id="Fill-12"
         inkscape:connector-curvature="0" />
      <path
         d="m 27.946845,20.38099 c -0.12986,-0.479705 -0.387562,-1.386041 -1.756813,-1.386041 -0.798,0 -1.974143,0.536861 -1.974143,2.808144 0,1.443197 0.56654,2.744184 1.974143,2.744184 0.917095,0 1.561013,-0.527335 1.756813,-1.511921 h 1.659249 C 29.275052,24.781346 28.149373,26 26.155717,26 c -2.114769,0 -3.630701,-1.439114 -3.630701,-4.218 0,-2.808144 1.602729,-4.242496 3.655596,-4.242496 2.375835,0 3.335993,1.658894 3.425482,2.841486 h -1.659249"
         id="Fill-13"
         inkscape:connector-curvature="0" />
      <g
         id="Group-17"
         transform="translate(30.273562)">
        <polyline
           id="Fill-14"
           points="5.72057481 19.1453246 1.54688326 19.1453246 1.54688326 20.8341577 5.22535685 20.8341577 5.22535685 22.2562613 1.54688326 22.2562613 1.54688326 24.3404255 5.71922911 24.3404255 5.71922911 25.759127 4.78089023e-15 25.759127 4.78089023e-15 17.7232211 5.72057481 17.7232211 5.72057481 19.1453246" />
        <path
           d="M 25.726438,18.625474 C 25.726438,8.3312135 17.48873,0 7.3078291,0 h -0.364685 v 8.0372668 h 0.364685 C 13.230932,8.0379472 18.03172,12.847923 18.101696,18.819398 h 6.73e-4 v 6.939729 h 7.624069 v -7.133653"
           id="Fill-16"
           inkscape:connector-curvature="0" />
      </g>
      <path
         d="m 37.581391,17.723221 h -0.364012 v 8.035906 h 3.811698 v -4.550051 c 0,-1.926985 -1.542174,-3.485855 -3.447686,-3.485855"
         id="Fill-18"
         inkscape:connector-curvature="0" />
      <path
         d="M 47.561782,18.913978 C 47.538905,13.358928 43.087999,8.8701159 37.590811,8.8619508 h -0.374105 v 8.0372662 h 0.364685 c 2.354977,0 4.261835,1.926985 4.261835,4.309859 v 4.550051 h 5.718556 v -6.845149"
         id="Fill-19"
         inkscape:connector-curvature="0" />
    </g>
  </g>
</svg>
